<svg width="16" height="16" viewBox="0 0 16 16" fill="none" xmlns="http://www.w3.org/2000/svg">
<path fill-rule="evenodd" clip-rule="evenodd" d="M7.85047 14.4932C11.5191 14.4932 14.4932 11.5191 14.4932 7.85047C14.4932 4.1818 11.5191 1.20776 7.85047 1.20776C4.1818 1.20776 1.20776 4.1818 1.20776 7.85047C1.20776 11.5191 4.1818 14.4932 7.85047 14.4932ZM7.85047 15.7009C12.1862 15.7009 15.7009 12.1862 15.7009 7.85047C15.7009 3.51477 12.1862 0 7.85047 0C3.51477 0 0 3.51477 0 7.85047C0 12.1862 3.51477 15.7009 7.85047 15.7009Z" fill="white"/>
<path d="M15.7011 7.85047C15.7011 12.1862 12.1863 15.7009 7.85059 15.7009C7.85059 11.7757 7.85059 5.133 7.85059 0C12.1863 0 15.7011 3.51477 15.7011 7.85047Z" fill="white"/>
</svg>
