<svg width="16" height="18" viewBox="0 0 16 18" fill="none" xmlns="http://www.w3.org/2000/svg">
<path d="M11 0.638184H5C2.23906 0.638184 0 2.94741 0 5.79486V11.9829C0 14.8303 2.23906 17.1396 5 17.1396H11C13.7609 17.1396 16 14.8303 16 11.9829V5.79486C16 2.94741 13.7609 0.638184 11 0.638184ZM14.5 11.9829C14.5 13.9734 12.93 15.5926 11 15.5926H5C3.07 15.5926 1.5 13.9734 1.5 11.9829V5.79486C1.5 3.80438 3.07 2.18519 5 2.18519H11C12.93 2.18519 14.5 3.80438 14.5 5.79486V11.9829Z" fill="white"/>
<path d="M8.00024 4.76349C5.79118 4.76349 4.00024 6.61055 4.00024 8.88883C4.00024 11.1671 5.79118 13.0142 8.00024 13.0142C10.2093 13.0142 12.0002 11.1671 12.0002 8.88883C12.0002 6.61055 10.2093 4.76349 8.00024 4.76349ZM8.00024 11.4672C6.62212 11.4672 5.50024 10.3101 5.50024 8.88883C5.50024 7.46656 6.62212 6.31049 8.00024 6.31049C9.37837 6.31049 10.5002 7.46656 10.5002 8.88883C10.5002 10.3101 9.37837 11.4672 8.00024 11.4672Z" fill="white"/>
<path d="M12.4 4.7638C12.621 4.7638 12.8001 4.5791 12.8001 4.35126C12.8001 4.12342 12.621 3.93872 12.4 3.93872C12.1791 3.93872 12 4.12342 12 4.35126C12 4.5791 12.1791 4.7638 12.4 4.7638Z" fill="white"/>
</svg>
