<svg width="15" height="14" viewBox="0 0 15 14" fill="none" xmlns="http://www.w3.org/2000/svg">
<path d="M14.4176 13.8644V13.8637H14.4211V8.92669C14.4211 6.51163 13.9012 4.65082 11.0774 4.65082C9.71998 4.65082 8.80921 5.39577 8.43725 6.10182H8.39799V4.87623H5.7207V13.8637H8.50842V9.41363C8.50842 8.24204 8.73068 7.109 10.1817 7.109C11.6116 7.109 11.6327 8.44607 11.6327 9.48901V13.8644H14.4176Z" fill="white"/>
<path d="M3.97262 4.87592H1.1814V13.8634H3.97262V4.87592Z" fill="white"/>
<path d="M2.57545 0.401855C1.68326 0.401855 0.958984 1.12613 0.958984 2.01832C0.958984 2.91052 1.68326 3.64987 2.57545 3.64987C3.46765 3.64987 4.19192 2.91052 4.19192 2.01832C4.19157 1.12613 3.4673 0.401855 2.57545 0.401855Z" fill="white"/>
</svg>
