<svg width="18" height="18" viewBox="0 0 18 18" fill="none" xmlns="http://www.w3.org/2000/svg">
<path d="M9 0C4.02923 0 0 4.02923 0 9C0 13.9708 4.02923 18 9 18C13.9708 18 18 13.9708 18 9C18 4.02923 13.9704 0 9 0ZM12.9169 13.0612C12.8024 13.2569 12.5965 13.3664 12.3848 13.3664C12.2792 13.3664 12.1727 13.3394 12.0751 13.2822C10.4576 12.3369 8.58921 12.1849 7.30674 12.2241C5.8858 12.2674 4.84366 12.5477 4.83314 12.5507C4.50568 12.6403 4.16686 12.4476 4.07721 12.1197C3.98756 11.7922 4.17949 11.4538 4.50694 11.3637C4.55409 11.3507 5.67535 11.0464 7.23477 10.9946C8.15316 10.9643 9.03746 11.0283 9.86283 11.1849C10.9079 11.3831 11.8612 11.7312 12.6963 12.219C12.9892 12.3907 13.0882 12.7679 12.9169 13.0612ZM14.0608 10.6848C13.9253 10.9168 13.6812 11.046 13.4308 11.046C13.3058 11.046 13.1791 11.014 13.0637 10.9462C11.1482 9.82664 8.93476 9.64692 7.41533 9.69279C5.73217 9.74414 4.49768 10.0762 4.48548 10.0796C4.09741 10.1852 3.6963 9.95712 3.58981 9.56947C3.48333 9.18141 3.71103 8.78071 4.09868 8.67381C4.15423 8.65865 5.48258 8.29753 7.32989 8.23692C8.4179 8.20114 9.46551 8.2769 10.4428 8.4621C11.6807 8.69696 12.8099 9.10901 13.799 9.68732C14.1467 9.89061 14.2641 10.3372 14.0608 10.6848ZM14.7642 8.52439C14.611 8.52439 14.4556 8.48482 14.3138 8.40191C9.75929 5.74017 3.85161 7.32273 3.79226 7.33873C3.31623 7.47005 2.82379 7.19015 2.69289 6.71412C2.56157 6.23809 2.84146 5.74564 3.3175 5.61474C3.38568 5.5958 5.01497 5.15344 7.28106 5.07852C8.61572 5.03475 9.90071 5.12734 11.0994 5.35505C12.618 5.64294 14.0032 6.14886 15.2166 6.85764C15.643 7.10681 15.7865 7.6544 15.5373 8.08077C15.3707 8.36571 15.0714 8.52439 14.7642 8.52439Z" fill="white"/>
</svg>
