<svg width="19" height="16" viewBox="0 0 19 16" fill="none" xmlns="http://www.w3.org/2000/svg">
<path d="M0.599655 7.88587C2.00242 8.32495 3.4017 8.77521 4.80397 9.2153C4.90923 9.24833 4.99403 9.23156 5.08532 9.17312C6.49857 8.27311 7.90882 7.36802 9.32256 6.46954C10.5732 5.67473 11.8243 4.88093 13.0714 4.08104C13.6661 3.6999 14.2637 3.32282 14.8573 2.94015C14.9835 2.85884 15.1142 2.79125 15.2534 2.73078C15.4295 2.65455 15.647 2.67792 15.7069 2.81005C15.7627 2.93354 15.6864 3.03417 15.6016 3.10989C15.4844 3.21407 15.3736 3.32536 15.2569 3.42954C14.7995 3.83863 14.352 4.25992 13.897 4.67207C13.3443 5.17264 12.7956 5.67778 12.2453 6.18038C11.8383 6.55238 11.4292 6.92183 11.0241 7.29637C10.4624 7.81523 9.89425 8.32596 9.33204 8.84432C8.7424 9.38809 8.14478 9.9227 7.55962 10.4721C7.44589 10.5788 7.44788 10.7256 7.44239 10.8603C7.40997 11.676 7.20694 14.3236 7.17451 14.8349C7.16553 14.9731 7.20245 15.0168 7.34213 14.9792C7.52121 14.9314 7.67985 14.8547 7.81304 14.7226C8.44957 14.0904 9.10756 13.4816 9.73611 12.8407C10.0893 12.4809 10.1053 12.4809 10.5048 12.7808C11.8019 13.754 13.1024 14.7216 14.4014 15.6922C14.5535 15.806 14.7196 15.8894 14.8987 15.9478C15.3232 16.0855 15.6605 15.9493 15.878 15.5545C15.9992 15.3349 16.0426 15.0895 16.0925 14.8491C16.4696 13.0394 16.8482 11.2303 17.2289 9.42112C17.7941 6.73228 18.3513 4.04191 18.921 1.35459C18.9723 1.11269 19.0482 0.812861 18.9584 0.576552C18.7838 0.117146 18.1722 -0.213686 17.2633 0.164916C15.2499 0.956679 13.2336 1.74031 11.2182 2.52547C8.71496 3.50119 6.21273 4.48048 3.708 5.45214C2.75469 5.8216 1.80288 6.1941 0.851575 6.56915C0.671489 6.64029 0.499885 6.72872 0.336261 6.83442C0.208556 6.91675 0.0459301 7.08598 0.0164979 7.22776C-0.0159274 7.38479 -0.0678079 7.64296 0.599655 7.88587Z" fill="white"/>
</svg>
