<svg width="18" height="14" viewBox="0 0 18 14" fill="none" xmlns="http://www.w3.org/2000/svg">
<path d="M18 1.65745C17.3306 1.93846 16.6173 2.1249 15.8737 2.21543C16.6387 1.77827 17.2227 1.09106 17.4973 0.262837C16.7839 0.670048 15.9964 0.957452 15.1572 1.11798C14.4797 0.427404 13.5147 0 12.4614 0C10.4184 0 8.77341 1.58745 8.77341 3.53332C8.77341 3.81332 8.79802 4.08255 8.85885 4.33899C5.7914 4.19562 3.07658 2.78822 1.25299 0.644135C0.934472 1.17284 0.747788 1.77827 0.747788 2.42981C0.747788 3.65313 1.40593 4.73779 2.3868 5.36543C1.79406 5.35466 1.21221 5.18976 0.719663 4.93029C0.719663 4.94106 0.719663 4.95519 0.719663 4.96899C0.719663 6.68567 1.99867 8.11159 3.67636 8.44005C3.37612 8.5188 3.04846 8.55649 2.70884 8.55649C2.47259 8.55649 2.23422 8.5437 2.01027 8.49625C2.48841 9.89524 3.84511 10.9237 5.45847 10.957C4.20301 11.8973 2.60864 12.4637 0.883142 12.4637C0.580441 12.4637 0.290396 12.4509 0 12.4152C1.63445 13.4238 3.57159 14 5.66062 14C12.4512 14 16.1638 8.61539 16.1638 3.94793C16.1638 3.79178 16.1581 3.64101 16.1504 3.49125C16.8827 2.99385 17.4983 2.3726 18 1.65745Z" fill="white"/>
</svg>
