<svg width="21" height="15" viewBox="0 0 21 15" fill="none" xmlns="http://www.w3.org/2000/svg">
<path d="M19.921 2.22778C19.6866 1.35676 18.9993 0.670041 18.1285 0.435308C16.5367 0 10.1701 0 10.1701 0C10.1701 0 3.80305 0 2.21159 0.419024C1.35707 0.65336 0.653506 1.35716 0.419118 2.22818C0 3.81928 0 7.11904 0 7.11904C0 7.11904 0 10.4355 0.41872 12.0103C0.653506 12.8813 1.33998 13.568 2.21159 13.8028C3.82013 14.2381 10.1701 14.2381 10.1701 14.2381C10.1701 14.2381 16.5367 14.2381 18.1285 13.8191C18.9997 13.5847 19.6866 12.8976 19.9214 12.0266C20.3401 10.4359 20.3401 7.13572 20.3401 7.13572C20.3401 7.13572 20.3568 3.81928 19.921 2.22778Z" fill="white"/>
<path d="M8.14282 10.1675L13.4372 7.11876L8.14282 4.07001V10.1675Z" fill="#2D647D"/>
</svg>
